<svg xmlns="http://www.w3.org/2000/svg" xmlns:xlink="http://www.w3.org/1999/xlink" xmlns:xodm="http://www.corel.com/coreldraw/odm/2003" xml:space="preserve" width="146.799mm" height="84.6666mm" style="shape-rendering:geometricPrecision; text-rendering:geometricPrecision; image-rendering:optimizeQuality; fill-rule:evenodd; clip-rule:evenodd" viewBox="0 0 17985.29 10373.03">
 <defs>
  <style type="text/css">
   <![CDATA[
    .fil1 {fill:#D8200E;fill-rule:nonzero}
    .fil0 {fill:url(#id0)}
   ]]>
  </style>
  <linearGradient id="id0" gradientUnits="userSpaceOnUse" x1="8000.51" y1="-341.18" x2="8721.45" y2="6646.31">
   <stop offset="0" style="stop-opacity:1; stop-color:#50D87F"></stop>
   <stop offset="1" style="stop-opacity:1; stop-color:#27AAE1"></stop>
  </linearGradient>
 </defs>
 <g id="Capa_x0020_1">
  <metadata id="CorelCorpID_0Corel-Layer"></metadata>
  <g id="_953918816">
   <path class="fil0" d="M8479.41 -0.01l-1.43 0c-53.48,0 -41.35,44.88 -25.97,53.78 413.73,241.14 685.23,436.4 934.95,702.83l0 0c86.68,92.18 154.79,238.27 199.75,370.27l0 0c12.23,35.76 16.97,64.26 22.36,104.3l0 0c5.37,40.58 -24.44,77.87 -65.14,80.96l0 0c-20.36,1.56 -40.47,3.52 -61.05,5.05l0 0c-113.98,9.79 -227.92,20.8 -338.49,9.79l0 0c-16.93,-1.19 -33.99,-3.39 -50.83,-5.92l0 0c-42.34,-6.71 -84.25,-13.98 -126.72,-21.67l0 0c-309.21,-55.79 -615.93,-131.25 -923.6,-198.57l0 0c-26.94,-5.93 -53.66,10.45 -60.5,37.2l0 0c-1.31,4.28 -1.78,8.89 -1.78,13.19l0 0c0,22.02 14.44,42.04 36.42,49.18l0 0c80.08,24.42 160.28,51.26 241.91,67.32l0 0c453.87,88.87 877.51,238.92 1207.96,578.28l0 0c406.36,416.95 379.64,1094.35 -45,1493l0 0c-602.39,565.99 -1464.49,590.97 -2107.13,59.31l0 0c-36.42,-30.03 -91.96,1.31 -83.07,48.3l0 0c42.68,223.74 200.78,360.26 395.14,463.12l0 0c355.54,188.1 735.16,186.35 1119.86,107.15l0 0c1053.28,-217.28 1740.71,-1129 1515.44,-2081.42l0 0c-211.01,-890.17 -811.18,-1455.38 -1617.19,-1876.47l0 0c-83.59,-43.65 -135.23,-58.5 -165.89,-58.97zm-8479.42 8315.74l0 1775.35c0,137.43 71.72,206.06 215.51,206.06l0 0 175.77 0 0 -1141.97 1151.42 0c143.56,0 215.51,-68.54 215.51,-205.93l0 0 0 -185.34 -1366.93 0 0 -448.16c0,-100.87 30.81,-178.33 92.61,-232.56l0 0c50.51,-44 112.1,-66.11 185.38,-66.11l0 0 873.43 0c143.56,0 215.51,-68.76 215.51,-206.15l0 0 0 -185.26 -1091.02 0c-171.29,0 -318.81,51.7 -442.36,155.01l0 0c-149.92,124.86 -224.83,303.17 -224.83,535.07zm9059.7 -7573.32c-50.39,0 -116.84,19.37 -146.96,46.87l0 0c-4.74,4.83 -9.36,10.22 -12.75,15.84l0 0c-28.85,49.91 -23.77,174.46 11.41,200.31l0 0c25.77,19.01 52.49,36.85 79.67,53.22l0 0c105.06,66.67 217.69,121.68 328.01,180.65l0 0c0.69,0.43 1.13,0.75 2,0.75l0 0c22.44,11.12 49.18,4.3 64.01,-16.16l0 0 55.44 -77.33c14.32,-19.92 12.45,-47.08 -4.3,-64.92l0 0 -0.75 -1.18c-104.62,-112.32 -204.27,-230.92 -322.33,-325.43l0 0c-11.66,-8.88 -30.13,-12.63 -53.01,-12.63l0 0 -0.44 0zm33.86 578.63c16.85,2.52 33.9,4.73 50.83,5.92l0 0 -177.55 -27.59c42.46,7.69 84.38,14.96 126.72,21.67zm-757.05 877.63c-108.45,60.58 -192.93,153.88 -226.81,302.59l0 0c-18.37,80.98 29.81,178.78 56,271.07l0 0c4.18,14.97 17.02,24.86 31.68,23.65l0 0 4.26 -0.32c18.72,-1.65 32.12,-20.93 27.95,-40.47l0 0c-48.83,-223.11 13.75,-380.44 141.47,-502.64l0 0c23.43,-22.2 6.4,-58.1 -19.24,-58.1l0 0c-4.86,0 -10.01,1.21 -15.31,4.21zm-451.55 83.38c-97.14,155.84 -140.61,334.18 -87.78,543.51l0 0c31.34,124.64 173.78,221.34 279.62,327.27l0 0c17.05,17.18 43.46,20.93 64.14,8.04l0 0c29.81,-18.71 35.86,-59.74 12.88,-86.46l0 0c-215.93,-249.71 -246.65,-495.81 -165.8,-743.09l0 0c14.1,-43.22 -20.67,-76.46 -56.09,-76.46l0 0c-17.5,0 -35.09,8.14 -46.96,27.2zm-368.52 352.54c-107.05,314.29 -39.61,593.93 200.19,786.77l0 0c316.81,254.98 859.57,259.59 1242.18,40.47l0 0c54.24,-31.02 24.86,-114.19 -37.2,-106.48l0 0c-787.95,97.35 -1301.12,-83.83 -1293.21,-701.39l0 0c0.56,-36.73 -29.02,-57.75 -58.53,-57.75l0 0c-22.32,0 -44.56,11.98 -53.44,38.38zm3568 78.64c-101.19,33.78 -18.16,247.87 81.41,449.06l0 0c2.84,6.27 5.49,12.2 7.93,19.03l0 0c9.79,25.41 19.58,52.27 29.81,80.08l0 0c15.18,51.7 29.24,98.78 37.6,129.72l0 0c32.69,115.59 167.9,443.1 99.14,682.46l0 0c-68.67,239.26 -376.57,634.62 -459.17,733.85l0 0c-82.74,98.66 -191.87,202.41 -248.74,148.18l0 0c-26.17,-24.98 -9.67,-70.75 29.59,-127.94l0 0c0.47,0 0.47,-0.34 0.47,-0.34l0 0c42.44,-36.87 88.22,-70.85 125.52,-111.86l0 0c147.83,-162.27 102.09,-78.02 222.29,-259.84l0 0c18.84,-27.93 39.07,-63.49 58.44,-103.18l0 0c0,0 0,-0.55 0.53,-0.55l0 0c28.07,-57.53 55.01,-124.08 74.04,-188.88l0 0c28.06,-94.48 39.38,-186 14.96,-244.87l0 0 0 -0.44 0 -0.43c-28.03,-65.24 -136.08,-141.48 -246.18,-29.6l0 0c-21.55,21.55 -62.28,80.86 -78.77,105.06l0 0c-4.7,6.7 -9.79,13.1 -14.85,19.37l0 0c-338.05,388.96 -291.52,356.29 -716.01,512.29l0 0c-130.03,47.84 -252.48,102.97 -368.21,163.9l0 0c0,0 -2.08,1.34 -6.36,3.43l0 0c-2,1.31 -5.08,2.52 -7.91,4.62l0 0c-0.91,0.43 -2.22,0.87 -3.53,1.64l0 0c-2.52,1.31 -5.08,3.06 -7.61,4.84l0 0c-1.31,0.31 -2.52,1.09 -4.18,2.1l0 0c-9.23,5.48 -21.67,12.31 -35.64,20.67l0 0c-2.96,1.78 -6.27,3.39 -9.67,5.61l0 0c-28.07,16.49 -62.28,37.64 -100.44,62.28l0 0c-16.06,10.1 -32.68,20.67 -49.61,32.11l0 0c-42.78,27.82 -89,60.19 -135.65,95.05l0 0c-9.14,6.7 -18.93,13.97 -28.37,21.02l0 0c-2.87,2.18 -6.27,4.7 -9.23,7.23l0 0c-13.98,11 -28.41,22.46 -42.38,34.24l0 0c-82.61,68.72 -159.72,141.57 -232.09,219.12l0 0c-0.87,1.3 -2.22,2.52 -3.53,4.3l0 0c-23.33,28.25 -44.44,57.06 -62.58,86.34l0 0c0,0 -1.78,2.96 -5.17,9.36l0 0c-1,1.87 -2.1,4.06 -3.31,6.48l0 0c0.22,-0.34 0.34,-0.65 0.56,-0.99l0 0c-1.13,2.08 -2.32,4.52 -3.53,7.14l0 0c-0.12,0.12 -0.12,0.22 -0.22,0.34l0 0c0,0 0.1,-0.12 0.1,-0.12l0 0c-1.97,4.2 -4.18,8.92 -6.49,14.31l0 0c2.32,-5.39 4.52,-10.11 6.4,-14.19l0 0c-36.85,67.89 -60.74,155.09 -73.93,251.01l0 0c0,1.65 -0.56,2.88 -0.56,4.53l0 0c-31.68,172.81 -51.58,435.62 -15.62,812.27l0 0c0,0 -32.22,98.69 172.93,102.86l0 0c205.06,4.28 418.56,-8.48 431.22,-42.81l0 0c13.19,-33.86 -21.54,-355.3 205.15,-442.64l0 0c2,-0.91 4.18,-1.65 6.7,-2.56l0 0c78.02,-27.93 156.32,-55.44 234.78,-83.03l0 0c55.88,-20.02 112.32,-39.39 168.08,-59.31l0 0c407.15,-145.32 807.57,-307.69 1112.28,-627.9l0 0c264.34,-279.21 474.89,-587.11 573.55,-942.65l0 0c13.65,-47.4 24.1,-95.7 33.46,-144.88l0 0c1.74,-8.14 2.52,-16.15 3.09,-24.29l0 0c22.42,-301.1 -237.4,-860.7 -277.56,-946.39l0 0c-4.74,-9.23 -9.79,-18.02 -15.28,-26.62l0 0c-26.76,-40.26 -165.36,-260.16 -169.98,-269.51l0 0c-57.75,-115.72 -124.94,-173.91 -210.64,-173.91l0 0c-24.1,0 -49.73,4.62 -77.01,13.84zm-2107.48 2617.16c-0.12,0.1 -0.12,0.22 -0.12,0.32l0 0c0,-0.1 0,-0.22 0.12,-0.32zm-2863.66 -2457.09c-4.83,9.35 -143.22,229.25 -170.06,269.51l0 0c-5.4,8.6 -10.45,17.4 -15.19,26.62l0 0c-40.16,85.69 -299.88,645.29 -277.43,946.39l0 0c0.43,8.15 1.31,16.16 2.96,24.29l0 0c9.25,49.18 19.92,97.47 33.32,144.88l0 0c98.78,355.54 309.34,663.44 573.79,942.65l0 0c304.6,320.21 704.92,482.58 1112.03,627.9l0 0c56.01,19.92 112.24,39.29 168.33,59.31l0 0c78.34,27.59 156.64,55.1 234.66,83.03l0 0c2.62,0.91 4.61,1.65 6.8,2.56l0 0c226.63,87.34 191.86,408.78 205.06,442.64l0 0c12.66,34.33 226.16,47.08 431.34,42.81l0 0c204.93,-4.18 172.82,-102.86 172.82,-102.86l0 0c35.95,-376.65 15.93,-639.46 -15.76,-812.27l0 0c0,-1.65 -0.31,-2.88 -0.31,-4.53l0 0c-13.32,-95.48 -36.87,-182.38 -73.84,-250.24l0 0c-0.87,-1.86 -1.75,-3.74 -2.52,-5.39l0 0c-0.88,-1.78 -1.75,-3.43 -2.52,-4.96l0 0c0.34,0.66 0.65,1.31 0.99,2l0 0c-0.99,-2 -1.87,-3.74 -2.74,-5.39l0 0c-3.43,-6.4 -5.08,-9.36 -5.08,-9.36l0 0c-18.24,-29.28 -39.35,-58.08 -62.8,-86.34l0 0c-1.09,-1.78 -2.4,-3 -3.17,-4.3l0 0c-72.63,-77.55 -149.62,-150.4 -232.22,-219.12l0 0c-14.1,-11.79 -28.51,-23.24 -42.48,-34.24l0 0c-2.87,-2.52 -6.27,-5.05 -9.23,-7.23l0 0c-9.26,-7.06 -19.05,-14.32 -28.51,-21.02l0 0c-46.52,-34.86 -92.61,-67.22 -135.52,-95.05l0 0c-16.83,-11.44 -33.34,-22.02 -49.52,-32.11l0 0c-38.04,-24.64 -72.37,-45.78 -100.44,-62.28l0 0c-3.27,-2.22 -6.8,-3.83 -9.79,-5.61l0 0c-13.84,-8.36 -26.16,-15.19 -35.64,-20.67l0 0c-1.65,-1 -2.84,-1.79 -4.06,-2.1l0 0c-2.65,-1.78 -5.17,-3.53 -7.71,-4.84l0 0c-1.21,-0.77 -2.52,-1.21 -3.39,-1.64l0 0c-2.87,-2.1 -5.83,-3.31 -8.05,-4.62l0 0c-4.18,-2.1 -6.38,-3.43 -6.38,-3.43l0 0c-115.73,-60.93 -238.05,-116.06 -368.17,-163.9l0 0c-424.52,-156 -377.88,-123.32 -716.02,-512.29l0 0c-4.95,-6.27 -10.13,-12.67 -14.75,-19.37l0 0c-16.49,-24.2 -57.22,-83.51 -78.77,-105.06l0 0c-110.23,-111.88 -218.15,-35.64 -246.18,29.6l0 0 0 0.43 0 0.44c-24.64,58.87 -13.1,150.39 14.85,244.87l0 0c19.01,64.8 46.2,131.35 74.15,188.88l0 0c0.31,0 0.31,0.55 0.31,0.55l0 0c19.71,39.7 39.95,75.25 58.66,103.18l0 0c120.34,181.83 74.59,97.57 222.43,259.84l0 0c37.17,41.01 82.94,74.99 125.29,111.86l0 0c0,0 0,0.34 0.44,0.34l0 0c39.38,57.19 56,102.96 29.71,127.94l0 0c-56.77,54.23 -166.23,-49.52 -248.74,-148.18l0 0c-82.72,-99.23 -390.72,-494.59 -459.25,-733.85l0 0c-68.54,-239.36 66.54,-566.87 99.1,-682.46l0 0c8.48,-30.94 22.44,-78.02 37.64,-129.72l0 0c10.32,-27.81 20.02,-54.67 29.81,-80.08l0 0c2.52,-6.82 5.05,-12.75 7.91,-19.03l0 0c99.67,-201.18 182.73,-415.28 81.39,-449.06l0 0c-27.25,-9.23 -52.79,-13.84 -76.87,-13.84l0 0c-85.71,0 -152.83,58.2 -210.67,173.91zm2404.15 2479.08c17.05,43.25 38.85,111.32 57.22,208.91l0 0c-18.37,-97.47 -40.25,-165.67 -57.22,-208.91zm2302.21 -2269.2c-36.3,8.92 -64.49,32.81 -75.59,60.74l0 0c1.09,22.54 3.31,44.78 6.49,66.98l0 0c22.44,162.71 93.72,311.87 203.4,451.15l0 0c36.98,46.84 126.41,33.86 152.26,-22.58l0 0c43.43,-94.91 28.47,-189.4 -32.12,-278.96l0 0c-50.07,-74.37 -94.95,-151.58 -138.08,-229.69l0 0c-0.43,-0.34 -0.53,-0.87 -0.65,-1.52l0 0c-3.19,-4.74 -5.39,-9.48 -8.14,-14.44l0 0c-15.98,-21.98 -45.22,-35.3 -77.77,-35.3l0 0c-9.7,0 -19.8,1.21 -29.81,3.61zm-4261.6 31.68c-2.65,4.96 -5.08,9.7 -8.05,14.44l0 0c0,0.65 -0.09,1.18 -0.77,1.52l0 0c-43,78.12 -87.88,155.33 -137.93,229.69l0 0c-60.61,89.56 -75.58,184.04 -32.15,278.96l0 0c25.77,56.44 115.41,69.42 152.14,22.58l0 0c109.8,-139.29 181.08,-288.44 203.54,-451.15l0 0c3.3,-22.2 5.27,-44.44 6.36,-66.98l0 0c-10.88,-27.93 -39.13,-51.82 -75.34,-60.74l0 0c-10.13,-2.4 -20.14,-3.61 -29.94,-3.61l0 0c-32.55,0 -61.71,13.32 -77.86,35.3zm4021.03 336.53c-25.64,4.4 -46.87,18.49 -58.54,36.42l0 0c-2.08,18.14 -2.87,36.07 -2.87,53.44l0 0c-0.78,144.78 62.05,273.25 148.96,396.79l0 0c18.46,26.29 63.14,31.25 94.14,10.77l0 0c97.83,-64.25 107.05,-119.91 47.87,-220.57l0 0c-46.21,-78.97 -94.04,-156.97 -143.87,-237.83l0 0c-3.75,-5.92 -7.18,-11.44 -10.57,-17.48l0 0c-13.32,-14.29 -34.65,-22.98 -58.4,-22.98l0 0c-5.53,0 -11.14,0.43 -16.71,1.43zm-3747.91 21.55c-3.31,6.04 -6.92,11.57 -10.66,17.48l0 0c-49.74,80.86 -97.47,158.85 -143.79,237.83l0 0c-59.27,100.66 -49.83,156.32 47.65,220.57l0 0c31.24,20.48 75.9,15.52 94.36,-10.77l0 0c86.82,-123.55 149.74,-252.02 149.08,-396.79l0 0c0,-17.37 -0.91,-35.3 -3.09,-53.44l0 0c-11.66,-17.94 -32.77,-32.03 -58.53,-36.42l0 0c-5.71,-1 -11.22,-1.43 -16.71,-1.43l0 0c-23.67,0 -44.88,8.7 -58.32,22.98zm3045.17 244.43c-533.96,669.49 -1268.25,671.71 -2077.65,459.17l0 0c-38.83,-10.23 -63.71,32.9 -30.69,53.92l0 0c575.54,363.55 1649.96,309.98 2043.02,-132.91l0 0c92.06,-103.62 163.02,-217.37 131.13,-366.08l0 0c-3.65,-16.85 -20.8,-26.76 -37.64,-26.76l0 0c-10.67,0 -21.24,3.96 -28.17,12.66zm505.16 84.38c-25.19,4.28 -46.34,16.06 -58.22,30.81l0 0c-2.61,14.41 -4.04,28.69 -4.61,42.66l0 0c-5.27,114.85 51.92,214.84 132.55,310.33l0 0c17.27,20.23 60.62,22.89 91.65,5.51l0 0c97.13,-54.13 107.92,-98.56 53.44,-176.68l0 0c-42.56,-61.37 -86.69,-121.67 -132.65,-184.39l0 0c-3.31,-4.48 -6.62,-8.88 -9.79,-13.5l0 0c-11.79,-10.35 -30.81,-16.53 -52.36,-16.53l0 0c-6.48,0 -13.22,0.56 -20.02,1.78zm-3350.22 14.75c-2.96,4.62 -6.27,9.02 -9.67,13.5l0 0c-45.87,62.72 -90,123.02 -132.69,184.39l0 0c-54.45,78.12 -43.57,122.55 53.58,176.68l0 0c31.02,17.37 74.49,14.71 91.64,-5.51l0 0c80.64,-95.49 137.73,-195.49 132.43,-310.33l0 0c-0.53,-13.97 -1.86,-28.25 -4.48,-42.66l0 0c-12.01,-14.75 -33.03,-26.54 -58.32,-30.81l0 0c-6.82,-1.21 -13.53,-1.78 -19.92,-1.78l0 0c-21.67,0 -40.7,6.17 -52.57,16.53zm4800.53 323.61c-9.36,49.18 -19.81,97.47 -33.46,144.88l0 0c0.34,-0.87 0.34,-1.31 0.89,-2.08l0 0c18.59,-47.4 29.6,-99.1 34.65,-152.89l0 0c-0.34,3.3 -1.21,6.7 -2.08,10.1zm-6145.68 142.79c0.47,0.77 0.47,1.21 0.77,2.08l0 0c-13.4,-47.4 -24.07,-95.7 -33.32,-144.88l0 0c-0.88,-3.39 -1.65,-6.8 -2.19,-10.1l0 0c5.06,53.78 16.16,105.49 34.75,152.89zm5383.11 68.98c37.64,-61.37 60.62,-127.48 74.04,-188.88l0 0c-19.03,64.8 -45.97,131.35 -74.04,188.88zm-4653.09 0c-27.95,-57.53 -55.13,-124.08 -74.15,-188.88l0 0c13.53,61.41 36.41,127.51 74.15,188.88zm2571.38 955.83c0.96,-2.1 1.86,-3.83 2.74,-5.49l0 0c-1,1.65 -1.87,3.53 -2.74,5.49zm-492.5 -5.49c0.53,0.97 1.21,2.18 1.75,3.39l0 0c-0.54,-1.21 -1.1,-2.3 -1.75,-3.39l0 0c0,0 0,0 0,0zm267.86 2545.07c-231,193.39 -346.97,427.04 -346.97,701.38l0 0 0 389.66 390.84 0 0 -389.66c0,-153.45 68.98,-286.22 206.18,-400.2l0 0c146.53,-122.08 326.26,-183.47 538.02,-183.47l0 0c212.2,0 392.63,61.39 540.47,183.47l0 0c135.86,113.98 204.15,246.75 204.15,400.2l0 0 0 389.66 390.74 0 0 -389.66c0,-274.34 -115.72,-507.99 -346.97,-701.38l0 0c-222.21,-183.05 -484.66,-274.35 -788.39,-274.35l0 0c-304.49,0 -566.96,91.3 -788.07,274.35zm4590.85 0c-231.03,193.39 -346.84,426.94 -346.84,701.3l0 0 0 263.12 390.07 0 0 -263.12c0,-153.23 68.85,-286.23 206.59,-400.11l0 0c146.74,-122.08 325.94,-183.35 538.14,-183.35l0 0c212.2,0 392.06,61.27 539.9,183.35l0 0c136.42,113.88 204.74,246.88 204.74,400.11l0 0 0 263.12 390.07 0 0 -263.12c0,-274.35 -115.07,-507.9 -346.19,-701.3l0 0c-222.21,-182.71 -485.45,-274.23 -788.51,-274.23l0 0c-304.59,0 -566.86,91.52 -787.95,274.23zm-8181.22 -221.66c-145.1,0 -217.47,68.76 -217.47,206.16l0 0 0 1782.86 -1361.3 -1989.01 -181.42 0c-143.76,0 -215.6,68.76 -215.6,206.16l0 0 0 2259.26c0,137.43 71.84,206.06 215.6,206.06l0 0 175.68 0 0 -1990.75 1251.76 1830.04c74.26,107.24 185.26,160.72 332.75,160.72l0 0 173.94 0 0 -2671.48 -173.94 0zm-2709.3 0c-143.69,0 -215.51,68.76 -215.51,206.16l0 0 0 2259.26c0,137.43 71.82,206.06 215.51,206.06l0 0 175.9 0 0 -2671.48 -175.9 0zm13645.6 11.23c-145.76,0 -218.37,69.93 -218.37,209.11l0 0 0 965.72 397.01 0 0 -777.07 932.52 0c94.61,0 178.54,41.25 251.13,124.42l0 0c78.34,90.87 117.16,202.41 117.16,335.74l0 0c0,123.64 -33.9,229.47 -101.75,316.91l0 0 446.72 0c34.55,-97.67 52.04,-203.5 52.04,-316.91l0 0c0,-231.56 -71.5,-429.69 -214.76,-594.8l0 0c-149.58,-175.47 -333.31,-263.12 -550.55,-263.12l0 0 -1111.16 0zm-4717.81 0c-144.09,0 -216.16,68.84 -216.16,206.57l0 0 0 968.26 392.15 0 0 -1174.83 -175.99 0zm-5289.94 0c-143.99,0 -216.03,68.76 -216.03,206.57l0 0 0 1094.89 392.16 0 0 -908.97 585.66 0c210.89,0 390.09,60.93 537.93,183.69l0 0c136.52,112.67 204.71,245.45 204.71,399.55l0 0 0 325.73 392.06 0 0 -325.73c0,-273.81 -115.17,-507.22 -346.94,-700.95l0 0c-221.68,-182.83 -484.7,-274.78 -787.77,-274.78l0 0 -761.79 0zm-216.03 2470.71c0,137.71 72.04,206.68 216.03,206.68l0 0 761.79 0c303.07,0 566.09,-91.52 787.77,-275l0 0c105.28,-87.04 189.19,-190.97 252.46,-312.42l0 0c63.14,-120.9 94.48,-251.15 94.48,-390.19l0 0 0 -15.74 -392.06 -0.54 0 16.28c0,156.54 -68.19,290.62 -204.71,401.51l0 0c-147.84,122.66 -327.04,184.03 -537.93,184.03l0 0 -585.66 0 0 -603.14 -392.16 -0.55 0 789.07zm2530.88 -710.21c0,276.78 115.96,511.09 346.97,702.74l0 0c219.9,182.17 482.37,272.9 788.07,272.9l0 0c304.94,0 567.41,-90.74 788.39,-272.9l0 0c231.25,-191.65 346.97,-425.96 346.97,-702.74l0 0 0 -74.02 -390.74 -0.56 0 74.59c0,154.02 -68.29,288.13 -204.15,401.42l0 0c-147.84,122.76 -328.27,184.03 -540.47,184.03l0 0c-211.76,0 -391.49,-61.27 -538.02,-184.03l0 0c-137.21,-111.98 -206.18,-246.06 -206.18,-401.42l0 0 0 -75.76 -390.84 -0.69 0 76.45zm8647.53 -14.4c43,22.54 75.46,57.96 97.01,105.93l0 0 320.67 732.54c35.65,84.82 112.64,126.6 231.79,126.6l0 0 253.45 0 -329.79 -757.82c-36.63,-81.61 -78.99,-150.71 -126.94,-207.24l0 0 -446.19 0zm-1172.99 0l0 755.95c0,139.61 72.62,209.11 218.37,209.11l0 0 178.64 0 0 -965.06 -397.01 0zm-1004.12 0l0 14.53c0,154 -68.32,287.88 -204.74,401.41l0 0c-147.84,122.76 -327.71,183.91 -539.9,183.91l0 0c-212.2,0 -391.4,-61.15 -538.14,-183.91l0 0c-137.73,-112.1 -206.59,-246.18 -206.59,-401.41l0 0 0 -14.53 -390.07 0 0 14.53c0,276.78 115.81,510.86 346.84,702.61l0 0c220,182.38 482.37,272.81 787.95,272.81l0 0c304.5,0 567.41,-90.43 788.51,-272.81l0 0c231.13,-191.75 346.19,-425.83 346.19,-702.61l0 0 0 -14.53 -390.07 0zm-3711.47 0l0 239.69c0,233.87 75.11,412.43 225.6,536.28l0 0c123.24,103.32 270.94,155.33 443.33,155.33l0 0 848.61 0 0 -185.35c0,-137.73 -72.06,-206.71 -216.07,-206.71l0 0 -630.66 0c-73.37,0 -135.18,-21.88 -186.13,-66.42l0 0c-61.81,-53.14 -92.52,-130.81 -92.52,-233.12l0 0 0 -239.69 -392.15 0z"></path>
   <polygon class="fil1" points="17753.73,9193.02 5885.04,9193.02 5885.04,9059.81 17753.73,9059.81 "></polygon>
  </g>
 </g>
</svg>